# xmcd
#
# Track frame offsets:
#	150
#	29238
#	53417
#	77057
#	99186
#	121515
#	147510
#	170623
#	196084
#	219218
#	240683
#	268545
#
# Disc length: 3842 seconds
#
# Revision: 0
# Processed by: cddbd v1.5.2PL0 Copyright (c) Steve Scherf et al.
# Submitted via: EasyCDDAExtractor 5.0.2.1
#
DISCID=9a0f000c
DTITLE=Five Spirit - MEDITATION
DYEAR=2006
DGENRE=Word
TTITLE0=Wayrapa Muspuynin
TTITLE1=White Buffalo
TTITLE2=Ly-o-lay ale loya
TTITLE3=Heya noho
TTITLE4=Jananau
TTITLE5=Raindance
TTITLE6=Axtu leman surnix
TTITLE7=Chirapac
TTITLE8=Tatanca
TTITLE9=The Mohicano
TTITLE10=Relampago
TTITLE11=Dawa
EXTD=
EXTT0=
EXTT1=
EXTT2=
EXTT3=
EXTT4=
EXTT5=
EXTT6=
EXTT7=
EXTT8=
EXTT9=
EXTT10=
EXTT11=
PLAYORDER=
